<svg width="142" height="22" viewBox="0 0 142 22" fill="none" xmlns="http://www.w3.org/2000/svg">
<path d="M10.1586 0C4.64583 0 0.17627 4.50448 0.17627 10.0604C0.17627 15.081 3.82619 19.2424 8.59924 20V12.9691H6.06347V10.0604H8.59924V7.84385C8.59924 5.32046 10.0898 3.92897 12.369 3.92897C13.4611 3.92897 14.6052 4.12516 14.6052 4.12516V6.59926H13.3433C12.1054 6.59926 11.718 7.37599 11.718 8.17185V10.0584H14.4844L14.0422 12.9671H11.718V19.998C16.4911 19.2444 20.141 15.082 20.141 10.0604C20.141 4.50448 15.6715 0 10.1586 0V0Z" fill="#58667E"/>
<path d="M49.469 10C49.469 8.125 47.9715 6.625 46.0996 6.625C44.2277 6.625 42.7302 8.125 42.7302 10C42.7302 11.875 44.2277 13.375 46.0996 13.375C47.9715 13.375 49.469 11.875 49.469 10ZM51.2161 10C51.2161 12.875 48.9698 15.125 46.0996 15.125C43.2294 15.125 40.9831 12.875 40.9831 10C40.9831 7.125 43.2294 4.875 46.0996 4.875C48.9698 4.875 51.2161 7.125 51.2161 10ZM52.5888 4.625C52.5888 5.375 52.0896 5.875 51.3408 5.875C50.5921 5.875 50.0929 5.375 50.0929 4.625C50.0929 3.875 50.5921 3.375 51.3408 3.375C52.0896 3.375 52.5888 4 52.5888 4.625ZM46.0996 1.75C44.6021 1.75 41.4823 1.625 40.2344 2.125C39.3608 2.5 38.6121 3.25 38.3625 4.125C37.8633 5.375 37.9881 8.5 37.9881 10C37.9881 11.5 37.8633 14.625 38.3625 15.875C38.6121 16.75 39.3608 17.5 40.2344 17.75C41.4823 18.25 44.7269 18.125 46.0996 18.125C47.4723 18.125 50.7169 18.25 51.9648 17.75C52.8384 17.375 53.4623 16.75 53.8367 15.875C54.3359 14.5 54.2111 11.375 54.2111 10C54.2111 8.625 54.3359 5.375 53.8367 4.125C53.5871 3.25 52.8384 2.5 51.9648 2.25C50.7169 1.625 47.5971 1.75 46.0996 1.75ZM56.0829 10V14.125C56.0829 15.625 55.5838 17.125 54.4607 18.375C53.3375 19.5 51.84 20 50.2177 20H41.9814C40.4839 20 38.9864 19.5 37.7385 18.375C36.7402 17.25 36.1162 15.75 36.1162 14.125V10V5.875C36.1162 4.25 36.7402 2.75 37.7385 1.625C38.9864 0.625 40.4839 0 41.9814 0H50.2177C51.7152 0 53.2127 0.5 54.4607 1.625C55.459 2.75 56.0829 4.25 56.0829 5.875V10Z" fill="#58667E"/>
<path d="M130.958 0C124.893 0 119.977 4.92479 119.977 11C119.977 17.0752 124.893 22 130.958 22C137.023 22 141.94 17.0752 141.94 11C141.94 4.92479 137.023 0 130.958 0ZM128.27 15.5593H126.046V8.39094H128.27V15.5593ZM127.144 7.51094C126.442 7.51094 125.988 7.0125 125.988 6.39604C125.988 5.76698 126.456 5.28344 127.173 5.28344C127.89 5.28344 128.33 5.76698 128.343 6.39604C128.343 7.0125 127.89 7.51094 127.144 7.51094ZM136.392 15.5593H134.168V11.5867C134.168 10.662 133.846 10.0341 133.041 10.0341C132.427 10.0341 132.062 10.4592 131.901 10.8682C131.841 11.0137 131.827 11.22 131.827 11.4251V15.5581H129.602V10.6769C129.602 9.78198 129.573 9.03375 129.543 8.38979H131.475L131.577 9.38552H131.622C131.915 8.91802 132.632 8.22823 133.832 8.22823C135.295 8.22823 136.392 9.21021 136.392 11.3208V15.5593V15.5593Z" fill="#58667E"/>
<path fill-rule="evenodd" clip-rule="evenodd" d="M100.01 2.31164C99.1128 2.70991 98.1611 2.97114 97.1866 3.08663C98.213 2.47126 98.9812 1.50316 99.348 0.362646C98.383 0.93656 97.3272 1.34105 96.2262 1.55864C95.486 0.766918 94.5056 0.242088 93.4372 0.0656226C92.3688 -0.110843 91.2721 0.0709268 90.3173 0.582715C89.3626 1.0945 88.6032 1.90768 88.1571 2.89602C87.711 3.88436 87.6031 4.99257 87.8501 6.04862C85.8954 5.95077 83.9831 5.44203 82.2375 4.55545C80.4919 3.66888 78.952 2.42432 77.718 0.902644C77.2807 1.65417 77.0508 2.50874 77.0521 3.37863C77.0521 5.08663 77.9197 6.59462 79.2395 7.47762C78.4589 7.45231 77.6955 7.24151 77.0122 6.86262V6.92262C77.0121 8.05976 77.4047 9.16193 78.1234 10.0421C78.8422 10.9223 79.8429 11.5263 80.9556 11.7516C80.2315 11.9479 79.4723 11.977 78.7353 11.8366C79.0494 12.815 79.6609 13.6706 80.4843 14.2838C81.3077 14.897 82.3018 15.2371 83.3277 15.2566C81.5862 16.6247 79.4361 17.3667 77.2229 17.3636C76.8255 17.3636 76.4342 17.3406 76.0498 17.2956C78.2977 18.7419 80.9136 19.5098 83.5853 19.5076C92.6272 19.5076 97.571 12.0046 97.571 5.49762C97.571 5.28463 97.566 5.07263 97.557 4.86163C98.5194 4.16437 99.35 3.30087 100.01 2.31164Z" fill="#58667E"/>
</svg>